<svg xmlns="http://www.w3.org/2000/svg" viewBox="0 0 100.25 100.25"><path d="M81.551 33.587V17.44a1.5 1.5 0 0 0-1.5-1.5H51.936V8.709a1.5 1.5 0 1 0-3 0v7.231h-28.98a1.5 1.5 0 0 0-1.5 1.5v16.115c-.061.183-.09.378-.077.574l3.544 53.262a1.5 1.5 0 0 0 1.497 1.4h53.16a1.5 1.5 0 0 0 1.497-1.4l3.544-53.262a1.524 1.524 0 0 0-.07-.542zm-3-14.647v13.59H21.456V18.94h57.095zm-3.375 66.852H24.823L21.479 35.53h57.042l-3.345 50.262z"/><path d="M50.436 74.822a1.5 1.5 0 0 0 1.5-1.5V48a1.5 1.5 0 1 0-3 0v25.322a1.5 1.5 0 0 0 1.5 1.5zM64.625 74.822a1.5 1.5 0 0 0 1.5-1.5V48a1.5 1.5 0 1 0-3 0v25.322a1.5 1.5 0 0 0 1.5 1.5zM36.792 74.822l.053-.001a1.5 1.5 0 0 0 1.447-1.551l-.873-25.322c-.028-.828-.734-1.495-1.551-1.447a1.5 1.5 0 0 0-1.447 1.551l.873 25.322a1.5 1.5 0 0 0 1.498 1.448z"/></svg>